
<svg width="141px" height="42px" viewBox="0 0 141 42" version="1.1" xmlns="http://www.w3.org/2000/svg" xmlns:xlink="http://www.w3.org/1999/xlink">
    <!-- Generator: Sketch 50.2 (55047) - http://www.bohemiancoding.com/sketch -->
    <desc>Created with Sketch.</desc>
    <defs>
        <path d="M19.5676923,0.178111111 C19.0976923,0.178111111 18.6634615,0.431277778 18.4280769,0.841944444 L17.4057692,2.62461111 L9.77192308,2.62577778 C9.30153846,2.62616667 8.86653846,2.87933333 8.63153846,3.29077778 L3.03423077,13.0810556 C2.79884615,13.4925 2.79884615,13.9996111 3.03423077,14.4110556 L4.05307692,16.1937222 L0.235,22.8717222 C-2.08166817e-17,23.2831667 -2.08166817e-17,23.7902778 0.235,24.2017222 L5.83269231,33.992 C6.06807692,34.4034444 6.50269231,34.657 6.97307692,34.657 L9.01192308,34.657 L12.83,41.335 C13.065,41.7464444 13.5,42 13.97,42 L25.1653846,42 C25.6357692,42 26.0707692,41.7464444 26.3061538,41.335 L27.325,39.5523333 L34.9607692,39.5523333 C35.4315385,39.5523333 35.8661538,39.2991667 36.1019231,38.8873333 L41.6988462,29.0970556 C41.9346154,28.6856111 41.9346154,28.1785 41.6988462,27.7670556 L40.68,25.9847778 L44.4976923,19.3067778 C44.7330769,18.8953333 44.7330769,18.389 44.4984615,17.9779444 L38.9146154,8.18727778 C38.6792308,7.77505556 38.2442308,7.52111111 37.7730769,7.52111111 L35.7211538,7.52111111 L31.9034615,0.843111111 C31.6680769,0.432055556 31.2334615,0.178111111 30.7626923,0.178111111 L19.5676923,0.178111111 Z M24.1457692,23.3150556 L28.1546154,16.3045556 C28.1930769,16.2361111 28.1930769,16.1517222 28.1546154,16.0832778 L19.9476923,1.72977778 L30.6361538,1.72977778 L34.7707692,8.96155556 L38.9057692,16.1937222 L34.8334615,23.3162222 L24.1457692,23.3150556 Z M19.5676923,1.95144444 L27.7107692,16.1937222 L23.7657692,23.0933889 L22.6196154,21.0890556 L23.9557692,18.7526111 C23.9573077,18.7498889 23.9580769,18.7467778 23.9592308,18.7440556 C23.9657692,18.7323889 23.9703846,18.7199444 23.9746154,18.7067222 C23.9757692,18.7020556 23.9776923,18.6981667 23.9784615,18.6935 C23.9826923,18.6771667 23.985,18.6596667 23.985,18.6417778 C23.985,18.6242778 23.9830769,18.6067778 23.9784615,18.5896667 C23.9776923,18.585 23.9757692,18.5803333 23.9746154,18.5764444 C23.9703846,18.5632222 23.9657692,18.5507778 23.9592308,18.5391111 C23.9580769,18.5363889 23.9573077,18.5332778 23.9557692,18.5305556 L18.3584615,8.74027778 C18.3192308,8.67144444 18.2469231,8.62905556 18.1680769,8.62905556 L15.7496154,8.62905556 L19.5676923,1.95144444 Z M10.1519231,4.17744444 L17.7888462,4.17666667 L15.2430769,8.62905556 L12.6976923,8.62905556 L10.1519231,4.17744444 Z M4.42807692,13.7464444 L9.77192308,4.39911111 L12.1903846,8.62905556 L9.77192308,8.62905556 C9.69346154,8.62905556 9.62153846,8.67144444 9.58192308,8.74027778 L5.57384615,15.7503889 L4.42807692,13.7464444 Z M39.3488462,16.3045556 C39.3880769,16.2361111 39.3880769,16.1517222 39.3488462,16.0832778 L35.3407692,9.07277778 L37.6461538,9.07277778 L42.9773077,18.4197222 L38.1396154,18.4197222 L39.3488462,16.3045556 Z M1.62923077,23.5367222 L5.76384615,16.3045556 L9.89846154,9.07277778 L12.5707692,9.07277778 L12.5711538,9.07277778 L18.0415385,9.07277778 L23.3857692,18.4197222 L15.3696154,18.4197222 C15.2911538,18.4197222 15.2184615,18.4617222 15.1796154,18.5305556 L6.97307692,32.8840556 L1.62923077,23.5367222 Z M36.6138462,21.0890556 L37.8865385,18.8630556 L42.9769231,18.8630556 L39.1588462,25.5410556 L36.6138462,21.0890556 Z M15.4961538,18.8630556 L23.3857692,18.8630556 L22.2396154,20.8673889 L19.5676923,20.8673889 C19.5657692,20.8673889 19.5638462,20.8681667 19.5626923,20.8681667 C19.5276923,20.8689444 19.4934615,20.8782778 19.4626923,20.8953889 C19.4588462,20.8973333 19.4553846,20.9000556 19.4519231,20.902 C19.4403846,20.9093889 19.4296154,20.9175556 19.4196154,20.9268889 C19.4165385,20.9296111 19.4130769,20.9327222 19.41,20.9358333 C19.3973077,20.9490556 19.3865385,20.9630556 19.3776923,20.9782222 L13.78,30.7688889 C13.7407692,30.8373333 13.7407692,30.9221111 13.78,30.9905556 L14.9896154,33.1057222 L7.35346154,33.1057222 L15.4961538,18.8630556 Z M19.9476923,21.3107222 L22.2396154,21.3107222 L23.5757692,23.6475556 C23.5780769,23.6514444 23.5807692,23.6545556 23.5830769,23.6580556 C23.5873077,23.6646667 23.5919231,23.6708889 23.5965385,23.6771111 C23.6011538,23.6825556 23.6061538,23.688 23.6115385,23.6930556 C23.6161538,23.6977222 23.6211538,23.7027778 23.6265385,23.7070556 C23.6330769,23.7125 23.6396154,23.7175556 23.6465385,23.7214444 C23.6496154,23.7237778 23.6523077,23.7268889 23.6561538,23.7284444 C23.6576923,23.7296111 23.6596154,23.7296111 23.6615385,23.7311667 C23.6761538,23.7393333 23.6923077,23.7459444 23.7092308,23.7506111 C23.7107692,23.7513889 23.7126923,23.751 23.7142308,23.7517778 C23.7288462,23.7552778 23.7442308,23.7572222 23.7588462,23.7576111 C23.7615385,23.7576111 23.7634615,23.7583889 23.7657692,23.7583889 C23.7680769,23.7583889 23.7703846,23.7576111 23.7726923,23.7576111 C23.7757692,23.7576111 23.7788462,23.7583889 23.7815385,23.7583889 L34.96,23.7595556 C35.0388462,23.7595556 35.1111538,23.7175556 35.1503846,23.6487222 L36.36,21.5323889 L38.9684615,26.0948333 L40.1780769,28.2103889 L23.8923077,28.2103889 L19.9476923,21.3107222 Z M14.2234615,30.8793333 L19.5676923,21.5323889 L23.5757692,28.5428889 C23.6146154,28.6113333 23.6873077,28.6533333 23.7657692,28.6533333 L40.1784615,28.6533333 L34.8346154,38.0006667 L18.2953846,38.0006667 L14.2234615,30.8793333 Z M10.1519231,33.5490556 L15.2426923,33.5490556 L16.5157692,35.7750556 L13.97,40.2270556 L10.1519231,33.5490556 Z M16.7692308,36.2183889 L17.9780769,38.3335556 C18.0173077,38.402 18.0896154,38.444 18.1680769,38.444 L26.1842308,38.444 L25.0388462,40.4479444 L14.3503846,40.4479444 L16.7692308,36.2183889 Z" id="path-1"></path>
        <polygon id="path-3" points="0 42 140.830414 42 140.830414 0.178111111 0 0.178111111"></polygon>
    </defs>
    <g id="Page-1" stroke="none" stroke-width="1" fill="none" fill-rule="evenodd">
        <g id="热点投资" transform="translate(-360.000000, -19.000000)">
            <g id="导航">
                <g id="logo新" transform="translate(360.000000, 19.000000)">
                    <g id="Group-255">
                        <mask id="mask-2" fill="white">
                            <use xlink:href="#path-1"></use>
                        </mask>
                        <g id="Clip-2"></g>
                        <polygon id="Fill-1" fill="#ffffff" mask="url(#mask-2)" points="35.3411538 9.6425 42.9773077 9.6425 42.9773077 9.07277778 35.3411538 9.07277778"></polygon>
                        <polygon id="Fill-3" fill="#ffffff" mask="url(#mask-2)" points="35.3411538 10.4307778 42.9773077 10.4307778 42.9773077 9.6425 35.3411538 9.6425"></polygon>
                        <polygon id="Fill-4" fill="#ffffff" mask="url(#mask-2)" points="35.3411538 11.2198333 42.9773077 11.2198333 42.9773077 10.4311667 35.3411538 10.4311667"></polygon>
                        <polygon id="Fill-5" fill="#ffffff" mask="url(#mask-2)" points="35.3411538 12.0085 42.9773077 12.0085 42.9773077 11.2198333 35.3411538 11.2198333"></polygon>
                        <polygon id="Fill-6" fill="#ffffff" mask="url(#mask-2)" points="35.3411538 12.7971667 42.9773077 12.7971667 42.9773077 12.0085 35.3411538 12.0085"></polygon>
                        <polygon id="Fill-7" fill="#ffffff" mask="url(#mask-2)" points="35.3411538 13.5858333 42.9773077 13.5858333 42.9773077 12.7975556 35.3411538 12.7975556"></polygon>
                        <polygon id="Fill-8" fill="#ffffff" mask="url(#mask-2)" points="35.3411538 14.3745 42.9773077 14.3745 42.9773077 13.5858333 35.3411538 13.5858333"></polygon>
                        <polygon id="Fill-9" fill="#ffffff" mask="url(#mask-2)" points="35.3411538 15.1631667 42.9773077 15.1631667 42.9773077 14.3745 35.3411538 14.3745"></polygon>
                        <polygon id="Fill-10" fill="#ffffff" mask="url(#mask-2)" points="35.3411538 15.9518333 42.9773077 15.9518333 42.9773077 15.1635556 35.3411538 15.1635556"></polygon>
                        <polygon id="Fill-11" fill="#ffffff" mask="url(#mask-2)" points="35.3411538 16.7405 42.9773077 16.7405 42.9773077 15.9518333 35.3411538 15.9518333"></polygon>
                        <polygon id="Fill-12" fill="#ffffff" mask="url(#mask-2)" points="35.3411538 17.5291667 42.9773077 17.5291667 42.9773077 16.7405 35.3411538 16.7405"></polygon>
                        <polygon id="Fill-13" fill="#ffffff" mask="url(#mask-2)" points="35.3411538 18.3182222 42.9773077 18.3182222 42.9773077 17.5295556 35.3411538 17.5295556"></polygon>
                        <polygon id="Fill-14" fill="#ffffff" mask="url(#mask-2)" points="35.3411538 18.4492222 42.9773077 18.4492222 42.9773077 18.3182222 35.3411538 18.3182222"></polygon>
                        <polygon id="Fill-15" fill="#ffffff" mask="url(#mask-2)" points="19.9476923 21.5187222 40.1780769 21.5187222 40.1780769 21.3107222 19.9476923 21.3107222"></polygon>
                        <polygon id="Fill-16" fill="#ffffff" mask="url(#mask-2)" points="19.9476923 22.2611667 40.1780769 22.2611667 40.1780769 21.4725 19.9476923 21.4725"></polygon>
                        <polygon id="Fill-17" fill="#ffffff" mask="url(#mask-2)" points="19.9476923 23.0498333 40.1780769 23.0498333 40.1780769 22.2611667 19.9476923 22.2611667"></polygon>
                        <polygon id="Fill-18" fill="#ffffff" mask="url(#mask-2)" points="19.9476923 23.8385 40.1780769 23.8385 40.1780769 23.0502222 19.9476923 23.0502222"></polygon>
                        <polygon id="Fill-19" fill="#ffffff" mask="url(#mask-2)" points="19.9476923 24.6271667 40.1780769 24.6271667 40.1780769 23.8385 19.9476923 23.8385"></polygon>
                        <polygon id="Fill-20" fill="#ffffff" mask="url(#mask-2)" points="19.9476923 25.4158333 40.1780769 25.4158333 40.1780769 24.6271667 19.9476923 24.6271667"></polygon>
                        <polygon id="Fill-21" fill="#ffffff" mask="url(#mask-2)" points="19.9476923 26.2048889 40.1780769 26.2048889 40.1780769 25.4162222 19.9476923 25.4162222"></polygon>
                        <polygon id="Fill-22" fill="#ffffff" mask="url(#mask-2)" points="19.9476923 26.9931667 40.1780769 26.9931667 40.1780769 26.2048889 19.9476923 26.2048889"></polygon>
                        <polygon id="Fill-23" fill="#ffffff" mask="url(#mask-2)" points="19.9476923 27.7818333 40.1780769 27.7818333 40.1780769 26.9931667 19.9476923 26.9931667"></polygon>
                        <polygon id="Fill-24" fill="#ffffff" mask="url(#mask-2)" points="19.9476923 28.2818333 40.1780769 28.2818333 40.1780769 27.7818333 19.9476923 27.7818333"></polygon>
                        <polygon id="Fill-25" fill="#ffffff" mask="url(#mask-2)" points="14.2238462 22.2611667 40.1784615 22.2611667 40.1784615 21.5323889 14.2238462 21.5323889"></polygon>
                        <polygon id="Fill-26" fill="#ffffff" mask="url(#mask-2)" points="14.2238462 23.0498333 40.1784615 23.0498333 40.1784615 22.2611667 14.2238462 22.2611667"></polygon>
                        <polygon id="Fill-27" fill="#ffffff" mask="url(#mask-2)" points="14.2238462 23.8385 40.1784615 23.8385 40.1784615 23.0502222 14.2238462 23.0502222"></polygon>
                        <polygon id="Fill-28" fill="#ffffff" mask="url(#mask-2)" points="14.2238462 24.6271667 40.1784615 24.6271667 40.1784615 23.8385 14.2238462 23.8385"></polygon>
                        <polygon id="Fill-29" fill="#ffffff" mask="url(#mask-2)" points="14.2238462 25.4158333 40.1784615 25.4158333 40.1784615 24.6271667 14.2238462 24.6271667"></polygon>
                        <polygon id="Fill-30" fill="#ffffff" mask="url(#mask-2)" points="14.2238462 26.2048889 40.1784615 26.2048889 40.1784615 25.4162222 14.2238462 25.4162222"></polygon>
                        <polygon id="Fill-31" fill="#ffffff" mask="url(#mask-2)" points="14.2238462 26.9931667 40.1784615 26.9931667 40.1784615 26.2048889 14.2238462 26.2048889"></polygon>
                        <polygon id="Fill-32" fill="#ffffff" mask="url(#mask-2)" points="14.2238462 27.7818333 40.1784615 27.7818333 40.1784615 26.9931667 14.2238462 26.9931667"></polygon>
                        <polygon id="Fill-33" fill="#ffffff" mask="url(#mask-2)" points="14.2238462 28.5708889 40.1784615 28.5708889 40.1784615 27.7822222 14.2238462 27.7822222"></polygon>
                        <polygon id="Fill-34" fill="#ffffff" mask="url(#mask-2)" points="14.2238462 29.3591667 40.1784615 29.3591667 40.1784615 28.5708889 14.2238462 28.5708889"></polygon>
                        <polygon id="Fill-35" fill="#ffffff" mask="url(#mask-2)" points="14.2238462 30.1478333 40.1784615 30.1478333 40.1784615 29.3591667 14.2238462 29.3591667"></polygon>
                        <polygon id="Fill-36" fill="#ffffff" mask="url(#mask-2)" points="14.2238462 30.9368889 40.1784615 30.9368889 40.1784615 30.1482222 14.2238462 30.1482222"></polygon>
                        <polygon id="Fill-37" fill="#ffffff" mask="url(#mask-2)" points="14.2238462 31.7251667 40.1784615 31.7251667 40.1784615 30.9368889 14.2238462 30.9368889"></polygon>
                        <polygon id="Fill-38" fill="#ffffff" mask="url(#mask-2)" points="14.2238462 32.5138333 40.1784615 32.5138333 40.1784615 31.7251667 14.2238462 31.7251667"></polygon>
                        <polygon id="Fill-39" fill="#ffffff" mask="url(#mask-2)" points="14.2238462 33.3028889 40.1784615 33.3028889 40.1784615 32.5142222 14.2238462 32.5142222"></polygon>
                        <polygon id="Fill-40" fill="#ffffff" mask="url(#mask-2)" points="14.2238462 34.0915556 40.1784615 34.0915556 40.1784615 33.3028889 14.2238462 33.3028889"></polygon>
                        <polygon id="Fill-41" fill="#ffffff" mask="url(#mask-2)" points="14.2238462 34.8798333 40.1784615 34.8798333 40.1784615 34.0915556 14.2238462 34.0915556"></polygon>
                        <polygon id="Fill-42" fill="#ffffff" mask="url(#mask-2)" points="14.2238462 35.6688889 40.1784615 35.6688889 40.1784615 34.8802222 14.2238462 34.8802222"></polygon>
                        <polygon id="Fill-43" fill="#ffffff" mask="url(#mask-2)" points="14.2238462 36.4575556 40.1784615 36.4575556 40.1784615 35.6688889 14.2238462 35.6688889"></polygon>
                        <polygon id="Fill-44" fill="#ffffff" mask="url(#mask-2)" points="14.2238462 37.2458333 40.1784615 37.2458333 40.1784615 36.4575556 14.2238462 36.4575556"></polygon>
                        <polygon id="Fill-45" fill="#ffffff" mask="url(#mask-2)" points="14.2234615 38.0002778 40.1780769 38.0002778 40.1780769 37.2458333 14.2234615 37.2458333"></polygon>
                        <polygon id="Fill-46" fill="#ffffff" mask="url(#mask-2)" points="14.3503846 36.5258889 26.1842308 36.5258889 26.1842308 36.2183889 14.3503846 36.2183889"></polygon>
                        <polygon id="Fill-47" fill="#ffffff" mask="url(#mask-2)" points="14.3503846 37.2458333 26.1842308 37.2458333 26.1842308 36.4575556 14.3503846 36.4575556"></polygon>
                        <polygon id="Fill-48" fill="#ffffff" mask="url(#mask-2)" points="14.3503846 38.0348889 26.1842308 38.0348889 26.1842308 37.2462222 14.3503846 37.2462222"></polygon>
                        <polygon id="Fill-49" fill="#ffffff" mask="url(#mask-2)" points="14.3503846 38.8235556 26.1842308 38.8235556 26.1842308 38.0348889 14.3503846 38.0348889"></polygon>
                        <polygon id="Fill-50" fill="#ffffff" mask="url(#mask-2)" points="14.3503846 39.6122222 26.1842308 39.6122222 26.1842308 38.8235556 14.3503846 38.8235556"></polygon>
                        <polygon id="Fill-51" fill="#ffffff" mask="url(#mask-2)" points="14.3503846 40.4008889 26.1842308 40.4008889 26.1842308 39.6126111 14.3503846 39.6126111"></polygon>
                        <polygon id="Fill-52" fill="#ffffff" mask="url(#mask-2)" points="14.3507692 40.4618889 26.1846154 40.4618889 26.1846154 40.4008889 14.3507692 40.4008889"></polygon>
                        <polygon id="Fill-53" fill="#ffffff" mask="url(#mask-2)" points="10.1519231 34.0915556 16.5153846 34.0915556 16.5153846 33.5486667 10.1519231 33.5486667"></polygon>
                        <polygon id="Fill-54" fill="#ffffff" mask="url(#mask-2)" points="10.1519231 34.8798333 16.5153846 34.8798333 16.5153846 34.0915556 10.1519231 34.0915556"></polygon>
                        <polygon id="Fill-55" fill="#ffffff" mask="url(#mask-2)" points="10.1519231 35.6688889 16.5153846 35.6688889 16.5153846 34.8802222 10.1519231 34.8802222"></polygon>
                        <polygon id="Fill-56" fill="#ffffff" mask="url(#mask-2)" points="10.1519231 36.4575556 16.5153846 36.4575556 16.5153846 35.6688889 10.1519231 35.6688889"></polygon>
                        <polygon id="Fill-57" fill="#ffffff" mask="url(#mask-2)" points="10.1519231 37.2458333 16.5153846 37.2458333 16.5153846 36.4575556 10.1519231 36.4575556"></polygon>
                        <polygon id="Fill-58" fill="#ffffff" mask="url(#mask-2)" points="10.1519231 38.0348889 16.5153846 38.0348889 16.5153846 37.2462222 10.1519231 37.2462222"></polygon>
                        <polygon id="Fill-59" fill="#ffffff" mask="url(#mask-2)" points="10.1519231 38.8235556 16.5153846 38.8235556 16.5153846 38.0348889 10.1519231 38.0348889"></polygon>
                        <polygon id="Fill-60" fill="#ffffff" mask="url(#mask-2)" points="10.1519231 39.6122222 16.5153846 39.6122222 16.5153846 38.8235556 10.1519231 38.8235556"></polygon>
                        <polygon id="Fill-61" fill="#ffffff" mask="url(#mask-2)" points="10.1523077 40.2266667 16.5157692 40.2266667 16.5157692 39.6122222 10.1523077 39.6122222"></polygon>
                        <polygon id="Fill-62" fill="#ffffff" mask="url(#mask-2)" points="7.35346154 19.1760556 23.3857692 19.1760556 23.3857692 18.8630556 7.35346154 18.8630556"></polygon>
                        <polygon id="Fill-63" fill="#ffffff" mask="url(#mask-2)" points="7.35346154 19.8951667 23.3857692 19.8951667 23.3857692 19.1065 7.35346154 19.1065"></polygon>
                        <polygon id="Fill-64" fill="#ffffff" mask="url(#mask-2)" points="7.35346154 20.6838333 23.3857692 20.6838333 23.3857692 19.8951667 7.35346154 19.8951667"></polygon>
                        <polygon id="Fill-65" fill="#ffffff" mask="url(#mask-2)" points="7.35346154 21.4725 23.3857692 21.4725 23.3857692 20.6842222 7.35346154 20.6842222"></polygon>
                        <polygon id="Fill-66" fill="#ffffff" mask="url(#mask-2)" points="7.35346154 22.2611667 23.3857692 22.2611667 23.3857692 21.4725 7.35346154 21.4725"></polygon>
                        <polygon id="Fill-67" fill="#ffffff" mask="url(#mask-2)" points="7.35346154 23.0498333 23.3857692 23.0498333 23.3857692 22.2611667 7.35346154 22.2611667"></polygon>
                        <polygon id="Fill-68" fill="#ffffff" mask="url(#mask-2)" points="7.35346154 23.8385 23.3857692 23.8385 23.3857692 23.0502222 7.35346154 23.0502222"></polygon>
                        <polygon id="Fill-69" fill="#ffffff" mask="url(#mask-2)" points="7.35346154 24.6271667 23.3857692 24.6271667 23.3857692 23.8385 7.35346154 23.8385"></polygon>
                        <polygon id="Fill-70" fill="#ffffff" mask="url(#mask-2)" points="7.35346154 25.4158333 23.3857692 25.4158333 23.3857692 24.6271667 7.35346154 24.6271667"></polygon>
                        <polygon id="Fill-71" fill="#ffffff" mask="url(#mask-2)" points="7.35346154 26.2048889 23.3857692 26.2048889 23.3857692 25.4162222 7.35346154 25.4162222"></polygon>
                        <polygon id="Fill-72" fill="#ffffff" mask="url(#mask-2)" points="7.35346154 26.9931667 23.3857692 26.9931667 23.3857692 26.2048889 7.35346154 26.2048889"></polygon>
                        <polygon id="Fill-73" fill="#ffffff" mask="url(#mask-2)" points="7.35346154 27.7818333 23.3857692 27.7818333 23.3857692 26.9931667 7.35346154 26.9931667"></polygon>
                        <polygon id="Fill-74" fill="#ffffff" mask="url(#mask-2)" points="7.35346154 28.5708889 23.3857692 28.5708889 23.3857692 27.7822222 7.35346154 27.7822222"></polygon>
                        <polygon id="Fill-75" fill="#ffffff" mask="url(#mask-2)" points="7.35346154 29.3591667 23.3857692 29.3591667 23.3857692 28.5708889 7.35346154 28.5708889"></polygon>
                        <polygon id="Fill-76" fill="#ffffff" mask="url(#mask-2)" points="7.35346154 30.1478333 23.3857692 30.1478333 23.3857692 29.3591667 7.35346154 29.3591667"></polygon>
                        <polygon id="Fill-77" fill="#ffffff" mask="url(#mask-2)" points="7.35346154 30.9368889 23.3857692 30.9368889 23.3857692 30.1482222 7.35346154 30.1482222"></polygon>
                        <polygon id="Fill-78" fill="#ffffff" mask="url(#mask-2)" points="7.35346154 31.7251667 23.3857692 31.7251667 23.3857692 30.9368889 7.35346154 30.9368889"></polygon>
                        <polygon id="Fill-79" fill="#ffffff" mask="url(#mask-2)" points="7.35346154 32.5138333 23.3857692 32.5138333 23.3857692 31.7251667 7.35346154 31.7251667"></polygon>
                        <polygon id="Fill-80" fill="#ffffff" mask="url(#mask-2)" points="7.35346154 33.1053333 23.3857692 33.1053333 23.3857692 32.5138333 7.35346154 32.5138333"></polygon>
                        <polygon id="Fill-81" fill="#ffffff" mask="url(#mask-2)" points="1.62961538 9.6425 23.3857692 9.6425 23.3857692 9.07277778 1.62961538 9.07277778"></polygon>
                        <polygon id="Fill-82" fill="#ffffff" mask="url(#mask-2)" points="1.62961538 10.4307778 23.3857692 10.4307778 23.3857692 9.6425 1.62961538 9.6425"></polygon>
                        <polygon id="Fill-83" fill="#ffffff" mask="url(#mask-2)" points="1.62961538 11.2198333 23.3857692 11.2198333 23.3857692 10.4311667 1.62961538 10.4311667"></polygon>
                        <polygon id="Fill-84" fill="#ffffff" mask="url(#mask-2)" points="1.62961538 12.0085 23.3857692 12.0085 23.3857692 11.2198333 1.62961538 11.2198333"></polygon>
                        <polygon id="Fill-85" fill="#ffffff" mask="url(#mask-2)" points="1.62961538 12.7971667 23.3857692 12.7971667 23.3857692 12.0085 1.62961538 12.0085"></polygon>
                        <polygon id="Fill-86" fill="#ffffff" mask="url(#mask-2)" points="1.62961538 13.5858333 23.3857692 13.5858333 23.3857692 12.7975556 1.62961538 12.7975556"></polygon>
                        <polygon id="Fill-87" fill="#ffffff" mask="url(#mask-2)" points="1.62961538 14.3745 23.3857692 14.3745 23.3857692 13.5858333 1.62961538 13.5858333"></polygon>
                        <polygon id="Fill-88" fill="#ffffff" mask="url(#mask-2)" points="1.62961538 15.1631667 23.3857692 15.1631667 23.3857692 14.3745 1.62961538 14.3745"></polygon>
                        <polygon id="Fill-89" fill="#ffffff" mask="url(#mask-2)" points="1.62961538 15.9518333 23.3857692 15.9518333 23.3857692 15.1635556 1.62961538 15.1635556"></polygon>
                        <polygon id="Fill-90" fill="#ffffff" mask="url(#mask-2)" points="1.62961538 16.7405 23.3857692 16.7405 23.3857692 15.9518333 1.62961538 15.9518333"></polygon>
                        <polygon id="Fill-91" fill="#ffffff" mask="url(#mask-2)" points="1.62961538 17.5291667 23.3857692 17.5291667 23.3857692 16.7405 1.62961538 16.7405"></polygon>
                        <polygon id="Fill-92" fill="#ffffff" mask="url(#mask-2)" points="1.62961538 18.3182222 23.3857692 18.3182222 23.3857692 17.5295556 1.62961538 17.5295556"></polygon>
                        <polygon id="Fill-93" fill="#ffffff" mask="url(#mask-2)" points="1.62961538 19.1065 23.3857692 19.1065 23.3857692 18.3182222 1.62961538 18.3182222"></polygon>
                        <polygon id="Fill-94" fill="#ffffff" mask="url(#mask-2)" points="1.62961538 19.8951667 23.3857692 19.8951667 23.3857692 19.1065 1.62961538 19.1065"></polygon>
                        <polygon id="Fill-95" fill="#ffffff" mask="url(#mask-2)" points="1.62961538 20.6838333 23.3857692 20.6838333 23.3857692 19.8951667 1.62961538 19.8951667"></polygon>
                        <polygon id="Fill-96" fill="#ffffff" mask="url(#mask-2)" points="1.62961538 21.4725 23.3857692 21.4725 23.3857692 20.6842222 1.62961538 20.6842222"></polygon>
                        <polygon id="Fill-97" fill="#ffffff" mask="url(#mask-2)" points="1.62961538 22.2611667 23.3857692 22.2611667 23.3857692 21.4725 1.62961538 21.4725"></polygon>
                        <polygon id="Fill-98" fill="#ffffff" mask="url(#mask-2)" points="1.62961538 23.0498333 23.3857692 23.0498333 23.3857692 22.2611667 1.62961538 22.2611667"></polygon>
                        <polygon id="Fill-99" fill="#ffffff" mask="url(#mask-2)" points="1.62961538 23.8385 23.3857692 23.8385 23.3857692 23.0502222 1.62961538 23.0502222"></polygon>
                        <polygon id="Fill-100" fill="#ffffff" mask="url(#mask-2)" points="1.62961538 24.6271667 23.3857692 24.6271667 23.3857692 23.8385 1.62961538 23.8385"></polygon>
                        <polygon id="Fill-101" fill="#ffffff" mask="url(#mask-2)" points="1.62961538 25.4158333 23.3857692 25.4158333 23.3857692 24.6271667 1.62961538 24.6271667"></polygon>
                        <polygon id="Fill-102" fill="#ffffff" mask="url(#mask-2)" points="1.62961538 26.2048889 23.3857692 26.2048889 23.3857692 25.4162222 1.62961538 25.4162222"></polygon>
                        <polygon id="Fill-103" fill="#ffffff" mask="url(#mask-2)" points="1.62961538 26.9931667 23.3857692 26.9931667 23.3857692 26.2048889 1.62961538 26.2048889"></polygon>
                        <polygon id="Fill-104" fill="#ffffff" mask="url(#mask-2)" points="1.62961538 27.7818333 23.3857692 27.7818333 23.3857692 26.9931667 1.62961538 26.9931667"></polygon>
                        <polygon id="Fill-105" fill="#ffffff" mask="url(#mask-2)" points="1.62961538 28.5708889 23.3857692 28.5708889 23.3857692 27.7822222 1.62961538 27.7822222"></polygon>
                        <polygon id="Fill-106" fill="#ffffff" mask="url(#mask-2)" points="1.62961538 29.3591667 23.3857692 29.3591667 23.3857692 28.5708889 1.62961538 28.5708889"></polygon>
                        <polygon id="Fill-107" fill="#ffffff" mask="url(#mask-2)" points="1.62961538 30.1478333 23.3857692 30.1478333 23.3857692 29.3591667 1.62961538 29.3591667"></polygon>
                        <polygon id="Fill-108" fill="#ffffff" mask="url(#mask-2)" points="1.62961538 30.9368889 23.3857692 30.9368889 23.3857692 30.1482222 1.62961538 30.1482222"></polygon>
                        <polygon id="Fill-109" fill="#ffffff" mask="url(#mask-2)" points="1.62961538 31.7251667 23.3857692 31.7251667 23.3857692 30.9368889 1.62961538 30.9368889"></polygon>
                        <polygon id="Fill-110" fill="#ffffff" mask="url(#mask-2)" points="1.62961538 32.5138333 23.3857692 32.5138333 23.3857692 31.7251667 1.62961538 31.7251667"></polygon>
                        <polygon id="Fill-111" fill="#ffffff" mask="url(#mask-2)" points="1.62923077 32.9893333 23.3853846 32.9893333 23.3853846 32.5138333 1.62923077 32.5138333"></polygon>
                        <polygon id="Fill-112" fill="#ffffff" mask="url(#mask-2)" points="4.42769231 4.9105 12.1903846 4.9105 12.1903846 4.3995 4.42769231 4.3995"></polygon>
                        <polygon id="Fill-113" fill="#ffffff" mask="url(#mask-2)" points="4.42769231 5.69877778 12.1903846 5.69877778 12.1903846 4.9105 4.42769231 4.9105"></polygon>
                        <polygon id="Fill-114" fill="#ffffff" mask="url(#mask-2)" points="4.42769231 6.48783333 12.1903846 6.48783333 12.1903846 5.69916667 4.42769231 5.69916667"></polygon>
                        <polygon id="Fill-115" fill="#ffffff" mask="url(#mask-2)" points="4.42769231 7.2765 12.1903846 7.2765 12.1903846 6.48783333 4.42769231 6.48783333"></polygon>
                        <polygon id="Fill-116" fill="#ffffff" mask="url(#mask-2)" points="4.42769231 8.06477778 12.1903846 8.06477778 12.1903846 7.2765 4.42769231 7.2765"></polygon>
                        <polygon id="Fill-117" fill="#ffffff" mask="url(#mask-2)" points="4.42769231 8.85383333 12.1903846 8.85383333 12.1903846 8.06516667 4.42769231 8.06516667"></polygon>
                        <polygon id="Fill-118" fill="#ffffff" mask="url(#mask-2)" points="4.42769231 9.6425 12.1903846 9.6425 12.1903846 8.85383333 4.42769231 8.85383333"></polygon>
                        <polygon id="Fill-119" fill="#ffffff" mask="url(#mask-2)" points="4.42769231 10.4307778 12.1903846 10.4307778 12.1903846 9.6425 4.42769231 9.6425"></polygon>
                        <polygon id="Fill-120" fill="#ffffff" mask="url(#mask-2)" points="4.42769231 11.2198333 12.1903846 11.2198333 12.1903846 10.4311667 4.42769231 10.4311667"></polygon>
                        <polygon id="Fill-121" fill="#ffffff" mask="url(#mask-2)" points="4.42769231 12.0085 12.1903846 12.0085 12.1903846 11.2198333 4.42769231 11.2198333"></polygon>
                        <polygon id="Fill-122" fill="#ffffff" mask="url(#mask-2)" points="4.42769231 12.7971667 12.1903846 12.7971667 12.1903846 12.0085 4.42769231 12.0085"></polygon>
                        <polygon id="Fill-123" fill="#ffffff" mask="url(#mask-2)" points="4.42769231 13.5858333 12.1903846 13.5858333 12.1903846 12.7975556 4.42769231 12.7975556"></polygon>
                        <polygon id="Fill-124" fill="#ffffff" mask="url(#mask-2)" points="4.42769231 14.3745 12.1903846 14.3745 12.1903846 13.5858333 4.42769231 13.5858333"></polygon>
                        <polygon id="Fill-125" fill="#ffffff" mask="url(#mask-2)" points="4.42769231 15.1631667 12.1903846 15.1631667 12.1903846 14.3745 4.42769231 14.3745"></polygon>
                        <polygon id="Fill-126" fill="#ffffff" mask="url(#mask-2)" points="4.42807692 15.7503889 12.1907692 15.7503889 12.1907692 15.1631667 4.42807692 15.1631667"></polygon>
                        <polygon id="Fill-127" fill="#ffffff" mask="url(#mask-2)" points="10.1523077 4.9105 17.7888462 4.9105 17.7888462 4.17627778 10.1523077 4.17627778"></polygon>
                        <polygon id="Fill-128" fill="#ffffff" mask="url(#mask-2)" points="10.1523077 5.69877778 17.7888462 5.69877778 17.7888462 4.9105 10.1523077 4.9105"></polygon>
                        <polygon id="Fill-129" fill="#ffffff" mask="url(#mask-2)" points="10.1523077 6.48783333 17.7888462 6.48783333 17.7888462 5.69916667 10.1523077 5.69916667"></polygon>
                        <polygon id="Fill-130" fill="#ffffff" mask="url(#mask-2)" points="10.1523077 7.2765 17.7888462 7.2765 17.7888462 6.48783333 10.1523077 6.48783333"></polygon>
                        <polygon id="Fill-131" fill="#ffffff" mask="url(#mask-2)" points="10.1523077 8.06477778 17.7888462 8.06477778 17.7888462 7.2765 10.1523077 7.2765"></polygon>
                        <polygon id="Fill-132" fill="#ffffff" mask="url(#mask-2)" points="10.1523077 8.62905556 17.7888462 8.62905556 17.7888462 8.06477778 10.1523077 8.06477778"></polygon>
                        <polygon id="Fill-133" fill="#ffffff" mask="url(#mask-2)" points="15.7496154 2.54411111 27.7107692 2.54411111 27.7107692 1.95183333 15.7496154 1.95183333"></polygon>
                        <polygon id="Fill-134" fill="#ffffff" mask="url(#mask-2)" points="15.7496154 3.33277778 27.7107692 3.33277778 27.7107692 2.54411111 15.7496154 2.54411111"></polygon>
                        <polygon id="Fill-135" fill="#ffffff" mask="url(#mask-2)" points="15.7496154 4.12183333 27.7107692 4.12183333 27.7107692 3.33316667 15.7496154 3.33316667"></polygon>
                        <polygon id="Fill-136" fill="#ffffff" mask="url(#mask-2)" points="15.7496154 4.9105 27.7107692 4.9105 27.7107692 4.12183333 15.7496154 4.12183333"></polygon>
                        <polygon id="Fill-137" fill="#ffffff" mask="url(#mask-2)" points="15.7496154 5.69877778 27.7107692 5.69877778 27.7107692 4.9105 15.7496154 4.9105"></polygon>
                        <polygon id="Fill-138" fill="#ffffff" mask="url(#mask-2)" points="15.7496154 6.48783333 27.7107692 6.48783333 27.7107692 5.69916667 15.7496154 5.69916667"></polygon>
                        <polygon id="Fill-139" fill="#ffffff" mask="url(#mask-2)" points="15.7496154 7.2765 27.7107692 7.2765 27.7107692 6.48783333 15.7496154 6.48783333"></polygon>
                        <polygon id="Fill-140" fill="#ffffff" mask="url(#mask-2)" points="15.7496154 8.06477778 27.7107692 8.06477778 27.7107692 7.2765 15.7496154 7.2765"></polygon>
                        <polygon id="Fill-141" fill="#ffffff" mask="url(#mask-2)" points="15.7496154 8.85383333 27.7107692 8.85383333 27.7107692 8.06516667 15.7496154 8.06516667"></polygon>
                        <polygon id="Fill-142" fill="#ffffff" mask="url(#mask-2)" points="15.7496154 9.6425 27.7107692 9.6425 27.7107692 8.85383333 15.7496154 8.85383333"></polygon>
                        <polygon id="Fill-143" fill="#ffffff" mask="url(#mask-2)" points="15.7496154 10.4307778 27.7107692 10.4307778 27.7107692 9.6425 15.7496154 9.6425"></polygon>
                        <polygon id="Fill-144" fill="#ffffff" mask="url(#mask-2)" points="15.7496154 11.2198333 27.7107692 11.2198333 27.7107692 10.4311667 15.7496154 10.4311667"></polygon>
                        <polygon id="Fill-145" fill="#ffffff" mask="url(#mask-2)" points="15.7496154 12.0085 27.7107692 12.0085 27.7107692 11.2198333 15.7496154 11.2198333"></polygon>
                        <polygon id="Fill-146" fill="#ffffff" mask="url(#mask-2)" points="15.7496154 12.7971667 27.7107692 12.7971667 27.7107692 12.0085 15.7496154 12.0085"></polygon>
                        <polygon id="Fill-147" fill="#ffffff" mask="url(#mask-2)" points="15.7496154 13.5858333 27.7107692 13.5858333 27.7107692 12.7975556 15.7496154 12.7975556"></polygon>
                        <polygon id="Fill-148" fill="#ffffff" mask="url(#mask-2)" points="15.7496154 14.3745 27.7107692 14.3745 27.7107692 13.5858333 15.7496154 13.5858333"></polygon>
                        <polygon id="Fill-149" fill="#ffffff" mask="url(#mask-2)" points="15.7496154 15.1631667 27.7107692 15.1631667 27.7107692 14.3745 15.7496154 14.3745"></polygon>
                        <polygon id="Fill-150" fill="#ffffff" mask="url(#mask-2)" points="15.7496154 15.9518333 27.7107692 15.9518333 27.7107692 15.1635556 15.7496154 15.1635556"></polygon>
                        <polygon id="Fill-151" fill="#ffffff" mask="url(#mask-2)" points="15.7496154 16.7405 27.7107692 16.7405 27.7107692 15.9518333 15.7496154 15.9518333"></polygon>
                        <polygon id="Fill-152" fill="#ffffff" mask="url(#mask-2)" points="15.7496154 17.5291667 27.7107692 17.5291667 27.7107692 16.7405 15.7496154 16.7405"></polygon>
                        <polygon id="Fill-153" fill="#ffffff" mask="url(#mask-2)" points="15.7496154 18.3182222 27.7107692 18.3182222 27.7107692 17.5295556 15.7496154 17.5295556"></polygon>
                        <polygon id="Fill-154" fill="#ffffff" mask="url(#mask-2)" points="15.7496154 19.1065 27.7107692 19.1065 27.7107692 18.3182222 15.7496154 18.3182222"></polygon>
                        <polygon id="Fill-155" fill="#ffffff" mask="url(#mask-2)" points="15.7496154 19.8951667 27.7107692 19.8951667 27.7107692 19.1065 15.7496154 19.1065"></polygon>
                        <polygon id="Fill-156" fill="#ffffff" mask="url(#mask-2)" points="15.7496154 20.6838333 27.7107692 20.6838333 27.7107692 19.8951667 15.7496154 19.8951667"></polygon>
                        <polygon id="Fill-157" fill="#ffffff" mask="url(#mask-2)" points="15.7496154 21.4725 27.7107692 21.4725 27.7107692 20.6842222 15.7496154 20.6842222"></polygon>
                        <polygon id="Fill-158" fill="#ffffff" mask="url(#mask-2)" points="15.7496154 22.2611667 27.7107692 22.2611667 27.7107692 21.4725 15.7496154 21.4725"></polygon>
                        <polygon id="Fill-159" fill="#ffffff" mask="url(#mask-2)" points="15.7496154 23.0498333 27.7107692 23.0498333 27.7107692 22.2611667 15.7496154 22.2611667"></polygon>
                        <polygon id="Fill-160" fill="#ffffff" mask="url(#mask-2)" points="15.7496154 23.1053333 27.7107692 23.1053333 27.7107692 23.0498333 15.7496154 23.0498333"></polygon>
                        <polygon id="Fill-161" fill="#ffffff" mask="url(#mask-2)" points="36.6134615 19.1760556 42.9769231 19.1760556 42.9769231 18.8630556 36.6134615 18.8630556"></polygon>
                        <polygon id="Fill-162" fill="#ffffff" mask="url(#mask-2)" points="36.6134615 19.8951667 42.9769231 19.8951667 42.9769231 19.1065 36.6134615 19.1065"></polygon>
                        <polygon id="Fill-163" fill="#ffffff" mask="url(#mask-2)" points="36.6134615 20.6838333 42.9769231 20.6838333 42.9769231 19.8951667 36.6134615 19.8951667"></polygon>
                        <polygon id="Fill-164" fill="#ffffff" mask="url(#mask-2)" points="36.6134615 21.4725 42.9769231 21.4725 42.9769231 20.6842222 36.6134615 20.6842222"></polygon>
                        <polygon id="Fill-165" fill="#ffffff" mask="url(#mask-2)" points="36.6134615 22.2611667 42.9769231 22.2611667 42.9769231 21.4725 36.6134615 21.4725"></polygon>
                        <polygon id="Fill-166" fill="#ffffff" mask="url(#mask-2)" points="36.6134615 23.0498333 42.9769231 23.0498333 42.9769231 22.2611667 36.6134615 22.2611667"></polygon>
                        <polygon id="Fill-167" fill="#ffffff" mask="url(#mask-2)" points="36.6134615 23.8385 42.9769231 23.8385 42.9769231 23.0502222 36.6134615 23.0502222"></polygon>
                        <polygon id="Fill-168" fill="#ffffff" mask="url(#mask-2)" points="36.6134615 24.6271667 42.9769231 24.6271667 42.9769231 23.8385 36.6134615 23.8385"></polygon>
                        <polygon id="Fill-169" fill="#ffffff" mask="url(#mask-2)" points="36.6134615 25.4158333 42.9769231 25.4158333 42.9769231 24.6271667 36.6134615 24.6271667"></polygon>
                        <polygon id="Fill-170" fill="#ffffff" mask="url(#mask-2)" points="36.6134615 25.5763333 42.9769231 25.5763333 42.9769231 25.4158333 36.6134615 25.4158333"></polygon>
                        <polygon id="Fill-171" fill="#ffffff" mask="url(#mask-2)" points="19.9476923 1.76316667 38.9053846 1.76316667 38.9053846 1.73016667 19.9476923 1.73016667"></polygon>
                        <polygon id="Fill-172" fill="#ffffff" mask="url(#mask-2)" points="19.9476923 2.54411111 38.9053846 2.54411111 38.9053846 1.75583333 19.9476923 1.75583333"></polygon>
                        <polygon id="Fill-173" fill="#ffffff" mask="url(#mask-2)" points="19.9476923 3.33277778 38.9053846 3.33277778 38.9053846 2.54411111 19.9476923 2.54411111"></polygon>
                        <polygon id="Fill-174" fill="#ffffff" mask="url(#mask-2)" points="19.9476923 4.12183333 38.9053846 4.12183333 38.9053846 3.33316667 19.9476923 3.33316667"></polygon>
                        <polygon id="Fill-175" fill="#ffffff" mask="url(#mask-2)" points="19.9476923 4.9105 38.9053846 4.9105 38.9053846 4.12183333 19.9476923 4.12183333"></polygon>
                        <polygon id="Fill-176" fill="#ffffff" mask="url(#mask-2)" points="19.9476923 5.69877778 38.9053846 5.69877778 38.9053846 4.9105 19.9476923 4.9105"></polygon>
                        <polygon id="Fill-177" fill="#ffffff" mask="url(#mask-2)" points="19.9476923 6.48783333 38.9053846 6.48783333 38.9053846 5.69916667 19.9476923 5.69916667"></polygon>
                        <polygon id="Fill-178" fill="#ffffff" mask="url(#mask-2)" points="19.9476923 7.2765 38.9053846 7.2765 38.9053846 6.48783333 19.9476923 6.48783333"></polygon>
                        <polygon id="Fill-179" fill="#ffffff" mask="url(#mask-2)" points="19.9476923 8.06477778 38.9053846 8.06477778 38.9053846 7.2765 19.9476923 7.2765"></polygon>
                        <polygon id="Fill-180" fill="#ffffff" mask="url(#mask-2)" points="19.9476923 8.85383333 38.9053846 8.85383333 38.9053846 8.06516667 19.9476923 8.06516667"></polygon>
                        <polygon id="Fill-181" fill="#ffffff" mask="url(#mask-2)" points="19.9476923 9.6425 38.9053846 9.6425 38.9053846 8.85383333 19.9476923 8.85383333"></polygon>
                        <polygon id="Fill-182" fill="#ffffff" mask="url(#mask-2)" points="19.9476923 10.4307778 38.9053846 10.4307778 38.9053846 9.6425 19.9476923 9.6425"></polygon>
                        <polygon id="Fill-183" fill="#ffffff" mask="url(#mask-2)" points="19.9476923 11.2198333 38.9053846 11.2198333 38.9053846 10.4311667 19.9476923 10.4311667"></polygon>
                        <polygon id="Fill-184" fill="#ffffff" mask="url(#mask-2)" points="19.9476923 12.0085 38.9053846 12.0085 38.9053846 11.2198333 19.9476923 11.2198333"></polygon>
                        <polygon id="Fill-185" fill="#ffffff" mask="url(#mask-2)" points="19.9476923 12.7971667 38.9053846 12.7971667 38.9053846 12.0085 19.9476923 12.0085"></polygon>
                        <polygon id="Fill-186" fill="#ffffff" mask="url(#mask-2)" points="19.9476923 13.5858333 38.9053846 13.5858333 38.9053846 12.7975556 19.9476923 12.7975556"></polygon>
                        <polygon id="Fill-187" fill="#ffffff" mask="url(#mask-2)" points="19.9476923 14.3745 38.9053846 14.3745 38.9053846 13.5858333 19.9476923 13.5858333"></polygon>
                        <polygon id="Fill-188" fill="#ffffff" mask="url(#mask-2)" points="19.9476923 15.1631667 38.9053846 15.1631667 38.9053846 14.3745 19.9476923 14.3745"></polygon>
                        <polygon id="Fill-189" fill="#ffffff" mask="url(#mask-2)" points="19.9476923 15.9518333 38.9053846 15.9518333 38.9053846 15.1635556 19.9476923 15.1635556"></polygon>
                        <polygon id="Fill-190" fill="#ffffff" mask="url(#mask-2)" points="19.9476923 16.7405 38.9053846 16.7405 38.9053846 15.9518333 19.9476923 15.9518333"></polygon>
                        <polygon id="Fill-191" fill="#ffffff" mask="url(#mask-2)" points="19.9476923 17.5291667 38.9053846 17.5291667 38.9053846 16.7405 19.9476923 16.7405"></polygon>
                        <polygon id="Fill-192" fill="#ffffff" mask="url(#mask-2)" points="19.9476923 18.3182222 38.9053846 18.3182222 38.9053846 17.5295556 19.9476923 17.5295556"></polygon>
                        <polygon id="Fill-193" fill="#ffffff" mask="url(#mask-2)" points="19.9476923 19.1065 38.9053846 19.1065 38.9053846 18.3182222 19.9476923 18.3182222"></polygon>
                        <polygon id="Fill-194" fill="#ffffff" mask="url(#mask-2)" points="19.9476923 19.8951667 38.9053846 19.8951667 38.9053846 19.1065 19.9476923 19.1065"></polygon>
                        <polygon id="Fill-195" fill="#ffffff" mask="url(#mask-2)" points="19.9476923 20.6838333 38.9053846 20.6838333 38.9053846 19.8951667 19.9476923 19.8951667"></polygon>
                        <polygon id="Fill-196" fill="#ffffff" mask="url(#mask-2)" points="19.9476923 21.4725 38.9053846 21.4725 38.9053846 20.6842222 19.9476923 20.6842222"></polygon>
                        <polygon id="Fill-197" fill="#ffffff" mask="url(#mask-2)" points="19.9476923 22.2611667 38.9053846 22.2611667 38.9053846 21.4725 19.9476923 21.4725"></polygon>
                        <polygon id="Fill-198" fill="#ffffff" mask="url(#mask-2)" points="19.9476923 23.0498333 38.9053846 23.0498333 38.9053846 22.2611667 19.9476923 22.2611667"></polygon>
                        <polygon id="Fill-199" fill="#ffffff" mask="url(#mask-2)" points="19.9476923 23.3923333 38.9053846 23.3923333 38.9053846 23.0498333 19.9476923 23.0498333"></polygon>
                        <path d="M44.7329615,0.178111111 L-0.000115384615,0.178111111 L44.7329615,0.178111111 Z" id="Fill-200" fill="#ffffff" mask="url(#mask-2)"></path>
                        <polygon id="Fill-201" fill="#ffffff" mask="url(#mask-2)" points="0 0.966777778 44.7330769 0.966777778 44.7330769 0.178111111 0 0.178111111"></polygon>
                        <polygon id="Fill-202" fill="#ffffff" mask="url(#mask-2)" points="0 1.75583333 44.7330769 1.75583333 44.7330769 0.967166667 0 0.967166667"></polygon>
                        <polygon id="Fill-203" fill="#ffffff" mask="url(#mask-2)" points="0 2.54411111 44.7330769 2.54411111 44.7330769 1.75583333 0 1.75583333"></polygon>
                        <polygon id="Fill-204" fill="#ffffff" mask="url(#mask-2)" points="0 3.33277778 44.7330769 3.33277778 44.7330769 2.54411111 0 2.54411111"></polygon>
                        <polygon id="Fill-205" fill="#ffffff" mask="url(#mask-2)" points="0 4.12183333 44.7330769 4.12183333 44.7330769 3.33316667 0 3.33316667"></polygon>
                        <polygon id="Fill-206" fill="#ffffff" mask="url(#mask-2)" points="0 4.9105 44.7330769 4.9105 44.7330769 4.12183333 0 4.12183333"></polygon>
                        <polygon id="Fill-207" fill="#ffffff" mask="url(#mask-2)" points="0 5.69877778 44.7330769 5.69877778 44.7330769 4.9105 0 4.9105"></polygon>
                        <polygon id="Fill-208" fill="#ffffff" mask="url(#mask-2)" points="0 6.48783333 44.7330769 6.48783333 44.7330769 5.69916667 0 5.69916667"></polygon>
                        <polygon id="Fill-209" fill="#ffffff" mask="url(#mask-2)" points="0 7.2765 44.7330769 7.2765 44.7330769 6.48783333 0 6.48783333"></polygon>
                        <polygon id="Fill-210" fill="#ffffff" mask="url(#mask-2)" points="0 8.06477778 44.7330769 8.06477778 44.7330769 7.2765 0 7.2765"></polygon>
                        <polygon id="Fill-211" fill="#ffffff" mask="url(#mask-2)" points="0 8.85383333 44.7330769 8.85383333 44.7330769 8.06516667 0 8.06516667"></polygon>
                        <polygon id="Fill-212" fill="#ffffff" mask="url(#mask-2)" points="0 9.6425 44.7330769 9.6425 44.7330769 8.85383333 0 8.85383333"></polygon>
                        <polygon id="Fill-213" fill="#ffffff" mask="url(#mask-2)" points="0 10.4307778 44.7330769 10.4307778 44.7330769 9.6425 0 9.6425"></polygon>
                        <polygon id="Fill-214" fill="#ffffff" mask="url(#mask-2)" points="0 11.2198333 44.7330769 11.2198333 44.7330769 10.4311667 0 10.4311667"></polygon>
                        <polygon id="Fill-215" fill="#ffffff" mask="url(#mask-2)" points="0 12.0085 44.7330769 12.0085 44.7330769 11.2198333 0 11.2198333"></polygon>
                        <polygon id="Fill-216" fill="#ffffff" mask="url(#mask-2)" points="0 12.7971667 44.7330769 12.7971667 44.7330769 12.0085 0 12.0085"></polygon>
                        <polygon id="Fill-217" fill="#ffffff" mask="url(#mask-2)" points="0 13.5858333 44.7330769 13.5858333 44.7330769 12.7975556 0 12.7975556"></polygon>
                        <polygon id="Fill-218" fill="#ffffff" mask="url(#mask-2)" points="0 14.3745 44.7330769 14.3745 44.7330769 13.5858333 0 13.5858333"></polygon>
                        <polygon id="Fill-219" fill="#ffffff" mask="url(#mask-2)" points="0 15.1631667 44.7330769 15.1631667 44.7330769 14.3745 0 14.3745"></polygon>
                        <polygon id="Fill-220" fill="#ffffff" mask="url(#mask-2)" points="0 15.9518333 44.7330769 15.9518333 44.7330769 15.1635556 0 15.1635556"></polygon>
                        <polygon id="Fill-221" fill="#ffffff" mask="url(#mask-2)" points="0 16.7405 44.7330769 16.7405 44.7330769 15.9518333 0 15.9518333"></polygon>
                        <polygon id="Fill-222" fill="#ffffff" mask="url(#mask-2)" points="0 17.5291667 44.7330769 17.5291667 44.7330769 16.7405 0 16.7405"></polygon>
                        <polygon id="Fill-223" fill="#ffffff" mask="url(#mask-2)" points="0 18.3182222 44.7330769 18.3182222 44.7330769 17.5295556 0 17.5295556"></polygon>
                        <polygon id="Fill-224" fill="#ffffff" mask="url(#mask-2)" points="0 19.1065 44.7330769 19.1065 44.7330769 18.3182222 0 18.3182222"></polygon>
                        <polygon id="Fill-225" fill="#ffffff" mask="url(#mask-2)" points="0 19.8951667 44.7330769 19.8951667 44.7330769 19.1065 0 19.1065"></polygon>
                        <polygon id="Fill-226" fill="#ffffff" mask="url(#mask-2)" points="0 20.6838333 44.7330769 20.6838333 44.7330769 19.8951667 0 19.8951667"></polygon>
                        <polygon id="Fill-227" fill="#ffffff" mask="url(#mask-2)" points="0 21.4725 44.7330769 21.4725 44.7330769 20.6842222 0 20.6842222"></polygon>
                        <polygon id="Fill-228" fill="#ffffff" mask="url(#mask-2)" points="0 22.2611667 44.7330769 22.2611667 44.7330769 21.4725 0 21.4725"></polygon>
                        <polygon id="Fill-229" fill="#ffffff" mask="url(#mask-2)" points="0 23.0498333 44.7330769 23.0498333 44.7330769 22.2611667 0 22.2611667"></polygon>
                        <polygon id="Fill-230" fill="#ffffff" mask="url(#mask-2)" points="0 23.8385 44.7330769 23.8385 44.7330769 23.0502222 0 23.0502222"></polygon>
                        <polygon id="Fill-231" fill="#ffffff" mask="url(#mask-2)" points="0 24.6271667 44.7330769 24.6271667 44.7330769 23.8385 0 23.8385"></polygon>
                        <polygon id="Fill-232" fill="#ffffff" mask="url(#mask-2)" points="0 25.4158333 44.7330769 25.4158333 44.7330769 24.6271667 0 24.6271667"></polygon>
                        <polygon id="Fill-233" fill="#ffffff" mask="url(#mask-2)" points="0 26.2048889 44.7330769 26.2048889 44.7330769 25.4162222 0 25.4162222"></polygon>
                        <polygon id="Fill-234" fill="#ffffff" mask="url(#mask-2)" points="0 26.9931667 44.7330769 26.9931667 44.7330769 26.2048889 0 26.2048889"></polygon>
                        <polygon id="Fill-235" fill="#ffffff" mask="url(#mask-2)" points="0 27.7818333 44.7330769 27.7818333 44.7330769 26.9931667 0 26.9931667"></polygon>
                        <polygon id="Fill-236" fill="#ffffff" mask="url(#mask-2)" points="0 28.5708889 44.7330769 28.5708889 44.7330769 27.7822222 0 27.7822222"></polygon>
                        <polygon id="Fill-237" fill="#ffffff" mask="url(#mask-2)" points="0 29.3591667 44.7330769 29.3591667 44.7330769 28.5708889 0 28.5708889"></polygon>
                        <polygon id="Fill-238" fill="#ffffff" mask="url(#mask-2)" points="0 30.1478333 44.7330769 30.1478333 44.7330769 29.3591667 0 29.3591667"></polygon>
                        <polygon id="Fill-239" fill="#ffffff" mask="url(#mask-2)" points="0 30.9368889 44.7330769 30.9368889 44.7330769 30.1482222 0 30.1482222"></polygon>
                        <polygon id="Fill-240" fill="#ffffff" mask="url(#mask-2)" points="0 31.7251667 44.7330769 31.7251667 44.7330769 30.9368889 0 30.9368889"></polygon>
                        <polygon id="Fill-241" fill="#ffffff" mask="url(#mask-2)" points="0 32.5138333 44.7330769 32.5138333 44.7330769 31.7251667 0 31.7251667"></polygon>
                        <polygon id="Fill-242" fill="#ffffff" mask="url(#mask-2)" points="0 33.3028889 44.7330769 33.3028889 44.7330769 32.5142222 0 32.5142222"></polygon>
                        <polygon id="Fill-243" fill="#ffffff" mask="url(#mask-2)" points="0 34.0915556 44.7330769 34.0915556 44.7330769 33.3028889 0 33.3028889"></polygon>
                        <polygon id="Fill-244" fill="#ffffff" mask="url(#mask-2)" points="0 34.8798333 44.7330769 34.8798333 44.7330769 34.0915556 0 34.0915556"></polygon>
                        <polygon id="Fill-245" fill="#ffffff" mask="url(#mask-2)" points="0 35.6688889 44.7330769 35.6688889 44.7330769 34.8802222 0 34.8802222"></polygon>
                        <polygon id="Fill-246" fill="#ffffff" mask="url(#mask-2)" points="0 36.4575556 44.7330769 36.4575556 44.7330769 35.6688889 0 35.6688889"></polygon>
                        <polygon id="Fill-247" fill="#ffffff" mask="url(#mask-2)" points="0 37.2458333 44.7330769 37.2458333 44.7330769 36.4575556 0 36.4575556"></polygon>
                        <polygon id="Fill-248" fill="#ffffff" mask="url(#mask-2)" points="0 38.0348889 44.7330769 38.0348889 44.7330769 37.2462222 0 37.2462222"></polygon>
                        <polygon id="Fill-249" fill="#ffffff" mask="url(#mask-2)" points="0 38.8235556 44.7330769 38.8235556 44.7330769 38.0348889 0 38.0348889"></polygon>
                        <polygon id="Fill-250" fill="#ffffff" mask="url(#mask-2)" points="0 39.6122222 44.7330769 39.6122222 44.7330769 38.8235556 0 38.8235556"></polygon>
                        <polygon id="Fill-251" fill="#ffffff" mask="url(#mask-2)" points="0 40.4008889 44.7330769 40.4008889 44.7330769 39.6126111 0 39.6126111"></polygon>
                        <polygon id="Fill-252" fill="#ffffff" mask="url(#mask-2)" points="0 41.1895556 44.7330769 41.1895556 44.7330769 40.4008889 0 40.4008889"></polygon>
                        <polygon id="Fill-253" fill="#ffffff" mask="url(#mask-2)" points="0 41.9782222 44.7330769 41.9782222 44.7330769 41.1895556 0 41.1895556"></polygon>
                        <polygon id="Fill-254" fill="#ffffff" mask="url(#mask-2)" points="0 42.0062222 44.7330769 42.0062222 44.7330769 41.9782222 0 41.9782222"></polygon>
                    </g>
                    <g id="Group-280">
                        <path d="M58.2979373,8.09262222 L58.2979373,5.94556667 L70.4791784,5.94556667 L70.4791784,8.09262222 L65.6067592,8.09262222 L65.6067592,20.8925111 L71.2007893,20.8925111 L71.2007893,22.7918444 L57.57594,22.7918444 L57.57594,20.8925111 L63.1703564,20.8925111 L63.1703564,8.09262222 L58.2979373,8.09262222 Z M49.7259099,22.7094 L49.3647181,20.6447889 C52.0112688,20.3698444 54.7478277,20.0124556 57.57594,19.5714556 C57.5152907,20.2870111 57.4855455,20.9749556 57.4855455,21.6356778 C57.1838441,21.6356778 56.7639345,21.6629 56.22234,21.7181222 C54.7787318,21.9378444 52.6131263,22.2680111 49.7259099,22.7094 Z M50.6283099,18.4152889 L49.9059263,16.4331222 C50.4479071,16.1029556 50.9891153,15.6075111 51.5303236,14.9467889 C52.1916715,14.2320111 52.793529,13.4604556 53.3347373,12.6348444 C51.7702167,12.6348444 50.6283099,12.7172889 49.9059263,12.8821778 L49.2747099,10.9832333 C49.7556551,10.7082889 50.2064688,10.2124556 50.6283099,9.49651111 C51.8915153,7.56995556 52.9136688,5.80906667 53.695929,4.2119 L56.0419373,4.87223333 C54.8984852,6.79995556 53.6059208,8.78173333 52.1619263,10.8179556 C53.244729,10.8179556 54.0864797,10.7907333 54.6883373,10.7351222 C55.2299318,9.90951111 55.7402359,9.0839 56.22234,8.2579 L58.47834,9.24917778 C56.3722249,12.1677889 54.6280742,14.4797333 53.244729,16.1857889 C54.0258304,16.0757333 55.500729,15.9376778 57.6659482,15.7724 C57.6056852,16.3234556 57.57594,16.9289556 57.57594,17.5892889 C55.6502277,17.7545667 53.9358222,17.9198444 52.4327236,18.0847333 C51.7702167,18.2500111 51.1695181,18.3608444 50.6283099,18.4152889 Z" id="Fill-256" fill="#ffffff"></path>
                        <path d="M86.5405463,11.1482778 C85.2773408,12.3044444 84.1041436,13.2128889 83.0217271,13.8732222 L89.9693573,13.8732222 C88.9460449,13.3237222 87.8041381,12.4152778 86.5405463,11.1482778 Z M82.6605353,21.4705556 L90.2401545,21.4705556 L90.2401545,18.7452222 L82.6605353,18.7452222 L82.6605353,21.4705556 Z M80.4049216,23.9477778 L80.4049216,17.0111667 L92.4961545,17.0111667 L92.4961545,23.9477778 L90.2401545,23.9477778 L90.2401545,23.0397222 L82.6605353,23.0397222 L82.6605353,23.9477778 L80.4049216,23.9477778 Z M79.1417162,8.01033333 L79.1417162,6.19344444 L82.0289326,6.19344444 L82.0289326,4.29411111 L84.2849326,4.29411111 L84.2849326,6.19344444 L88.7061518,6.19344444 L88.7061518,4.29411111 L90.8717573,4.29411111 L90.8717573,6.19344444 L94.0301573,6.19344444 L94.0301573,8.01033333 L90.8717573,8.01033333 L90.8717573,9.66194444 L88.7061518,9.66194444 L88.7061518,8.01033333 L84.2849326,8.01033333 L84.2849326,9.66194444 L82.0289326,9.66194444 L82.0289326,8.01033333 L79.1417162,8.01033333 Z M93.30816,15.3595556 C92.7665655,15.1406111 92.0136641,14.8100556 91.0525463,14.3686667 C90.7504586,14.2033889 90.5105655,14.0937222 90.330549,14.0385 L90.330549,15.5248333 L82.5705271,15.5248333 L82.5705271,14.1213333 C81.9682833,14.5067222 81.0056203,15.0021667 79.6829244,15.6076667 C79.5620121,15.3879444 79.381223,15.0577778 79.1417162,14.6163889 C78.8396285,14.1765556 78.6294805,13.8732222 78.5101134,13.7079444 C81.6978723,12.5517778 84.163634,10.9289444 85.9089436,8.83594444 L88.3453463,9.08366667 L87.7137436,9.82722222 C89.4578942,11.4243889 91.7135079,12.6346111 94.4813573,13.4602222 C94.3005682,13.7363333 94.0301573,14.1493333 93.6689655,14.6992222 C93.4885627,15.029 93.3672641,15.2498889 93.30816,15.3595556 Z M72.8253025,11.396 L72.8253025,9.41383333 L74.9912942,9.41383333 L74.9912942,4.29411111 L77.2465216,4.29411111 L77.2465216,9.41383333 L79.1417162,9.41383333 L79.1417162,11.396 L77.2465216,11.396 L77.2465216,18.5799444 L79.5025216,18.0848889 L79.5025216,20.2315556 C78.9613134,20.3427778 78.0280093,20.5621111 76.7053134,20.8926667 C74.9596175,21.3336667 73.6376942,21.6358333 72.7352942,21.8011111 L72.3741025,19.6536667 L74.9912942,19.0757778 L74.9912942,11.396 L72.8253025,11.396 Z" id="Fill-258" fill="#ffffff"></path>
                        <mask id="mask-4" fill="white">
                            <use xlink:href="#path-3"></use>
                        </mask>
                        <g id="Clip-261"></g>
                        <path d="M110.090868,11.7261667 L114.151668,11.7261667 L114.151668,7.43205556 L110.090868,7.43205556 L110.090868,11.7261667 Z M107.925649,13.4602222 L116.317274,13.4602222 L116.317274,5.61516667 L107.925649,5.61516667 L107.925649,13.4602222 Z M100.79723,21.6358333 L112.25686,21.6358333 L112.25686,19.8189444 L100.79723,19.8189444 L100.79723,21.6358333 Z M100.79723,18.3326111 L112.25686,18.3326111 L112.25686,16.5985556 L100.79723,16.5985556 L100.79723,18.3326111 Z M105.669649,14.8645 C104.948038,14.3686667 103.955244,13.7079444 102.692038,12.8823333 C102.330847,12.6073889 102.029145,12.4152778 101.789638,12.3044444 C101.24843,13.1852778 100.165627,14.0385 98.5412301,14.8645 L105.669649,14.8645 Z M105.669649,14.8645 L114.692877,14.8645 L114.692877,24.0306111 L112.25686,24.0306111 L112.25686,23.1221667 L100.79723,23.1221667 L100.79723,24.0306111 L98.4508356,24.0306111 L98.4508356,14.9469444 C97.9687315,15.1118333 97.4881726,15.3327222 97.0072274,15.6076667 C96.5857726,15.0021667 96.1345726,14.4242778 95.6536274,13.8732222 C98.1804247,13.0476111 99.7437863,12.0567222 100.34603,10.9001667 L95.8344164,10.9001667 L95.8344164,9.24894444 L100.79723,9.24894444 C100.916984,8.69905556 100.977633,8.09277778 100.977633,7.43205556 L98.8120274,7.43205556 C98.3905726,7.98311111 97.8196192,8.56138889 97.0976219,9.16611111 C96.9763233,9.05644444 96.8268247,8.91877778 96.6468082,8.7535 C96.5251233,8.58822222 96.1956082,8.28644444 95.6536274,7.84505556 C96.9763233,6.79972222 97.9096274,5.56111111 98.4508356,4.12883333 L100.616827,4.29411111 C100.436038,4.84516667 100.194986,5.34022222 99.8948301,5.78044444 L106.391647,5.78044444 L106.391647,7.43205556 L103.233247,7.43205556 C103.233247,7.65294444 103.202342,7.95588889 103.143238,8.3405 C103.143238,8.78188889 103.112334,9.08366667 103.05323,9.24894444 L107.023249,9.24894444 L107.023249,10.9001667 L102.782047,10.9001667 C103.443395,11.2859444 104.465548,11.8642222 105.850052,12.6346111 C106.330997,12.9107222 106.691803,13.1028333 106.932855,13.2128889 L105.669649,14.8645 Z" id="Fill-260" fill="#ffffff" mask="url(#mask-4)"></path>
                        <path d="M130.935034,9.49662778 C130.452543,9.16607222 129.820941,8.78185 129.040225,8.34046111 C130.483834,7.13023889 131.535732,5.72635 132.198239,4.12879444 L134.634256,4.37651667 C134.393204,4.87196111 134.122793,5.34018333 133.822636,5.78040556 L140.229058,5.78040556 L140.229058,7.51446111 L135.085456,7.51446111 L137.160667,9.16607222 L135.717058,10.4875167 C135.415743,10.2125722 134.934798,9.77273889 134.27345,9.16607222 C133.971749,8.89112778 133.731856,8.67062778 133.551453,8.50573889 L134.815045,7.51446111 L132.649053,7.51446111 C132.469036,7.79057222 132.166949,8.14796111 131.747039,8.58818333 C131.385847,8.97396111 131.115436,9.27729444 130.935034,9.49662778 Z M125.430625,10.4050722 C125.309327,10.2954056 125.099565,10.1032944 124.799023,9.82718333 C124.257815,9.33135 123.806615,8.91873889 123.445423,8.58818333 L124.889417,7.51446111 C125.611415,8.06551667 126.302121,8.64379444 126.964628,9.24890556 L125.430625,10.4050722 Z M119.114212,12.3044056 L119.114212,10.57035 L128.408236,10.57035 L128.408236,9.41379444 L130.754245,9.41379444 L130.754245,10.57035 L140.048269,10.57035 L140.048269,12.3044056 L130.754245,12.3044056 L130.754245,13.8731833 L138.604661,13.8731833 L138.604661,16.9286833 C138.663765,18.30535 137.912409,19.0212944 136.349047,19.0757389 C135.987856,19.1309611 135.356253,19.1585722 134.453853,19.1585722 C134.393204,19.0485167 134.332554,18.8560167 134.27345,18.5799056 C134.093047,18.1404611 133.942004,17.8099056 133.822636,17.5894056 L135.356253,17.5894056 C136.077864,17.5894056 136.408152,17.3144611 136.349047,16.7637944 L136.349047,15.6076278 L130.754245,15.6076278 L130.754245,16.5985167 C132.859201,19.0212944 136.137354,20.6729056 140.589478,21.55335 C140.348425,21.8279056 140.017365,22.3505722 139.597069,23.1221278 C139.536806,23.34185 139.475771,23.4795167 139.416667,23.5351278 C135.385612,22.3789611 132.498395,20.8385722 130.754245,18.9104611 L130.754245,24.0305722 L128.408236,24.0305722 L128.408236,18.9932944 C126.543173,20.8654056 123.655571,22.4334056 119.746201,23.7000167 C119.685552,23.5351278 119.504762,23.2317944 119.204606,22.7919611 C118.903291,22.2409056 118.693143,21.8551278 118.573004,21.6357944 C122.904215,20.6449056 126.181982,18.9660722 128.408236,16.5985167 L128.408236,15.6076278 L122.994223,15.6076278 L122.994223,18.9104611 L120.648215,18.9104611 L120.648215,13.8731833 L128.408236,13.8731833 L128.408236,12.3044056 L119.114212,12.3044056 Z M120.197015,9.99168333 C119.655806,9.44218333 119.114212,9.00118333 118.573004,8.67062778 C120.197015,7.46079444 121.550615,5.94568333 122.633417,4.12879444 L124.979425,4.37651667 C124.799023,4.59701667 124.58733,4.90073889 124.347823,5.28496111 C124.22691,5.50546111 124.13613,5.67073889 124.077025,5.78040556 L129.761836,5.78040556 L129.761836,7.51446111 L122.814206,7.51446111 C122.091823,8.34046111 121.219554,9.16607222 120.197015,9.99168333 Z" id="Fill-262" fill="#ffffff" mask="url(#mask-4)"></path>
                        <polygon id="Fill-263" fill="#ffffff" mask="url(#mask-4)" points="54.1949918 37.0181389 53.2987726 37.0181389 53.2987726 34.4518611 50.2454466 34.4518611 50.2454466 37.0181389 49.3774274 37.0181389 49.3774274 31.2376944 50.2454466 31.2376944 50.2454466 33.6908056 53.2987726 33.6908056 53.2987726 31.2376944 54.1949918 31.2376944"></polygon>
                        <path d="M57.9486049,36.3979389 C59.1434351,36.3411611 59.7692433,35.5987722 59.8248707,34.1699944 C59.7692433,32.7602722 59.1527063,32.00855 57.9764186,31.9144389 C56.800131,32.00855 56.1743227,32.7602722 56.0997666,34.1699944 C56.1557803,35.5618278 56.771931,36.3038278 57.9486049,36.3979389 M58.0046186,31.1529944 C59.7414296,31.2657722 60.6747337,32.2718278 60.8056899,34.1699944 C60.7118186,36.0312167 59.7692433,37.0081056 57.9764186,37.1026056 C56.1839803,37.0081056 55.2499036,36.0312167 55.1753474,34.1699944 C55.2688323,32.2527722 56.211794,31.2474944 58.0046186,31.1529944" id="Fill-264" fill="#ffffff" mask="url(#mask-4)"></path>
                        <polygon id="Fill-265" fill="#ffffff" mask="url(#mask-4)" points="61.8417888 31.2375778 62.8782353 31.2375778 65.791334 35.9750222 65.8191477 35.9750222 65.8191477 31.2375778 66.6597395 31.2375778 66.6597395 37.0180222 65.6511066 37.0180222 62.6819942 32.2525778 62.6819942 37.0180222 61.8417888 37.0180222"></polygon>
                        <path d="M73.1018942,33.8318167 L73.1018942,35.9749833 C72.7097984,36.7080389 71.8695929,37.0837056 70.5812778,37.1027611 C68.7695244,37.0082611 67.8172915,36.0220389 67.7241929,34.14215 C67.8172915,32.2435944 68.7324395,31.2472611 70.4692504,31.1527611 C71.7946504,31.1718167 72.6630559,31.68865 73.0740805,32.7040389 L72.2338751,33.0139833 C71.9534203,32.2809278 71.3654696,31.9142056 70.4692504,31.9142056 C69.3485901,32.0269833 68.7417107,32.77015 68.6486121,34.14215 C68.7227819,35.5518722 69.3671326,36.3035944 70.5812778,36.3980944 C71.3840121,36.3794278 71.9534203,36.1437611 72.2895025,35.69265 L72.2895025,34.5648722 L70.4132367,34.5648722 L70.4132367,33.8318167 L73.1018942,33.8318167 Z" id="Fill-266" fill="#ffffff" mask="url(#mask-4)"></path>
                        <polygon id="Fill-267" fill="#ffffff" mask="url(#mask-4)" points="78.6198616 31.9709056 76.6593822 31.9709056 76.6593822 37.0182944 75.7909767 37.0182944 75.7909767 31.9709056 73.801911 31.9709056 73.801911 31.2374611 78.6198616 31.2374611"></polygon>
                        <path d="M81.6450263,31.9990222 L81.6172126,31.9990222 C81.5608126,32.1681889 81.5051852,32.3373556 81.4487852,32.5065222 C81.4298564,32.5442444 81.140903,33.2959667 80.580766,34.7620778 L82.6814729,34.7620778 C82.1209496,33.2959667 81.8312236,32.5442444 81.8134537,32.5065222 C81.8134537,32.4882444 81.8034099,32.4501333 81.7848674,32.3937444 C81.6913825,32.1681889 81.6450263,32.0371333 81.6450263,31.9990222 Z M82.1495359,31.2375778 L84.4460975,37.0180222 L83.4934784,37.0180222 L82.9055277,35.4671333 L80.3567112,35.4671333 L79.7683742,37.0180222 L78.8161414,37.0180222 L81.112703,31.2375778 L82.1495359,31.2375778 Z" id="Fill-268" fill="#ffffff" mask="url(#mask-4)"></path>
                        <polygon id="Fill-269" fill="#ffffff" mask="url(#mask-4)" points="91.0562162 31.9709056 87.9468764 31.9709056 87.9468764 33.77535 90.663734 33.77535 90.663734 34.4804056 87.9468764 34.4804056 87.9468764 37.0182944 87.0506573 37.0182944 87.0506573 31.2374611 91.0562162 31.2374611"></polygon>
                        <polygon id="Fill-270" fill="#ffffff" mask="url(#mask-4)" points="92.1209014 37.0179444 92.9893068 37.0179444 92.9893068 31.2375 92.1209014 31.2375"></polygon>
                        <polygon id="Fill-271" fill="#ffffff" mask="url(#mask-4)" points="94.3333652 31.2375778 95.3698118 31.2375778 98.2829104 35.9750222 98.3107241 35.9750222 98.3107241 31.2375778 99.1513159 31.2375778 99.1513159 37.0180222 98.142683 37.0180222 95.1735707 32.2525778 95.1735707 37.0180222 94.3333652 37.0180222"></polygon>
                        <polygon id="Fill-272" fill="#ffffff" mask="url(#mask-4)" points="104.781233 31.9709056 102.820754 31.9709056 102.820754 37.0182944 101.952348 37.0182944 101.952348 31.9709056 99.9632827 31.9709056 99.9632827 31.2374611 104.781233 31.2374611"></polygon>
                        <polygon id="Fill-273" fill="#ffffff" mask="url(#mask-4)" points="109.99101 37.0181389 105.593355 37.0181389 105.593355 31.2376944 109.878982 31.2376944 109.878982 31.97075 106.48996 31.97075 106.48996 33.6908056 109.683127 33.6908056 109.683127 34.4238611 106.48996 34.4238611 106.48996 36.3134722 109.99101 36.3134722"></polygon>
                        <path d="M115.929273,32.8728944 L115.060867,33.09845 C114.836813,32.3467278 114.332689,31.9523944 113.548498,31.9142833 C112.445993,31.9897278 111.858043,32.7321167 111.783873,34.1422278 C111.8395,35.55195 112.41818,36.3036722 113.520298,36.3977833 C114.416517,36.3795056 114.957725,35.8902833 115.145081,34.9316722 L116.0131,35.1852278 C115.733032,36.4638944 114.902098,37.1028389 113.520298,37.1028389 C111.820958,37.0083389 110.924739,36.0310611 110.831254,34.1702278 C110.924739,32.2716722 111.830229,31.2656167 113.548498,31.1528389 C114.743328,31.19095 115.536791,31.7637833 115.929273,32.8728944" id="Fill-274" fill="#ffffff" mask="url(#mask-4)"></path>
                        <polygon id="Fill-275" fill="#ffffff" mask="url(#mask-4)" points="121.810943 37.0181389 120.914724 37.0181389 120.914724 34.4518611 117.861398 34.4518611 117.861398 37.0181389 116.993379 37.0181389 116.993379 31.2376944 117.861398 31.2376944 117.861398 33.6908056 120.914724 33.6908056 120.914724 31.2376944 121.810943 31.2376944"></polygon>
                        <polygon id="Fill-276" fill="#ffffff" mask="url(#mask-4)" points="127.413047 31.9709056 125.452567 31.9709056 125.452567 37.0182944 124.584162 37.0182944 124.584162 31.9709056 122.595096 31.9709056 122.595096 31.2374611 127.413047 31.2374611"></polygon>
                        <polygon id="Fill-277" fill="#ffffff" mask="url(#mask-4)" points="128.281414 37.0179444 129.149819 37.0179444 129.149819 31.2375 128.281414 31.2375"></polygon>
                        <path d="M135.312253,32.8728944 L134.443848,33.09845 C134.219793,32.3467278 133.71567,31.9523944 132.931478,31.9142833 C131.828974,31.9897278 131.241023,32.7321167 131.166853,34.1422278 C131.222481,35.55195 131.80116,36.3036722 132.903278,36.3977833 C133.799497,36.3795056 134.340705,35.8902833 134.528061,34.9316722 L135.396081,35.1852278 C135.116012,36.4638944 134.285078,37.1028389 132.903278,37.1028389 C131.203938,37.0083389 130.307719,36.0310611 130.214234,34.1702278 C130.307719,32.2716722 131.213209,31.2656167 132.931478,31.1528389 C134.126308,31.19095 134.919771,31.7637833 135.312253,32.8728944" id="Fill-278" fill="#ffffff" mask="url(#mask-4)"></path>
                        <path d="M136.096175,35.2700056 L136.992394,35.07245 C137.122964,35.9937278 137.655287,36.4541722 138.588977,36.4541722 C139.41064,36.4355056 139.839821,36.1065056 139.877679,35.4671722 C139.933692,35.0351167 139.550481,34.7061167 138.729205,34.4805611 C138.654262,34.4428389 138.495492,34.3957833 138.252895,34.3390056 C138.178339,34.3211167 138.121939,34.3110056 138.084854,34.3110056 C136.833624,34.0481167 136.245673,33.5122278 136.320229,32.7037278 C136.394399,31.7268389 137.076607,31.2096167 138.364922,31.1528389 C139.67178,31.1345611 140.437816,31.6607278 140.66187,32.7321167 L139.793465,32.9292833 C139.662509,32.23395 139.205514,31.8862833 138.421322,31.8862833 C137.692758,31.9053389 137.300662,32.17795 137.244648,32.7037278 C137.188635,33.1365611 137.636744,33.4468944 138.588977,33.6343389 C138.962531,33.72845 139.242599,33.8035056 139.429569,33.8598944 C140.381802,34.1608944 140.848454,34.68745 140.829912,35.4391722 C140.792054,36.5105611 140.054991,37.0647278 138.617177,37.1028389 C137.178977,37.1401722 136.338772,36.5292278 136.096175,35.2700056" id="Fill-279" fill="#ffffff" mask="url(#mask-4)"></path>
                    </g>
                </g>
            </g>
        </g>
    </g>
</svg>